<mxfile modified="2024-03-13T05:09:35.197Z" host="app.diagrams.net" agent="Mozilla/5.0 (Windows NT 10.0; Win64; x64) AppleWebKit/537.36 (KHTML, like Gecko) Chrome/122.0.0.0 Safari/537.36 Edg/122.0.0.0" etag="JtupCdS75fVTBVyCfaVt" version="24.0.5" type="device">
  <diagram id="Ht1M8jgEwFfnCIfOTk4-" name="Page-1">
    <mxGraphModel dx="1774" dy="884" grid="1" gridSize="10" guides="1" tooltips="1" connect="1" arrows="1" fold="1" page="1" pageScale="1" pageWidth="1169" pageHeight="827" math="0" shadow="0">
      <root>
        <mxCell id="0" />
        <mxCell id="1" parent="0" />
        <mxCell id="k1oZT4vzYtAEEAk6muaA-3" value="" style="endArrow=classic;html=1;rounded=0;" parent="1" source="k1oZT4vzYtAEEAk6muaA-6" edge="1">
          <mxGeometry width="50" height="50" relative="1" as="geometry">
            <mxPoint x="70" y="383.41" as="sourcePoint" />
            <mxPoint x="180" y="383" as="targetPoint" />
            <Array as="points">
              <mxPoint x="90" y="383.41" />
            </Array>
          </mxGeometry>
        </mxCell>
        <mxCell id="k1oZT4vzYtAEEAk6muaA-4" value="&lt;div&gt;User&lt;/div&gt;Request" style="text;html=1;align=center;verticalAlign=middle;whiteSpace=wrap;rounded=0;fontStyle=1" parent="1" vertex="1">
          <mxGeometry x="90" y="354" width="60" height="30" as="geometry" />
        </mxCell>
        <mxCell id="k1oZT4vzYtAEEAk6muaA-5" value="API&lt;div&gt;Gateway&lt;/div&gt;" style="ellipse;whiteSpace=wrap;html=1;aspect=fixed;fontStyle=1" parent="1" vertex="1">
          <mxGeometry x="435" y="248" width="80" height="80" as="geometry" />
        </mxCell>
        <mxCell id="k1oZT4vzYtAEEAk6muaA-6" value="" style="sketch=0;outlineConnect=0;fontColor=#232F3E;gradientColor=none;fillColor=#232F3D;strokeColor=none;dashed=0;verticalLabelPosition=bottom;verticalAlign=top;align=center;html=1;fontSize=12;fontStyle=0;aspect=fixed;pointerEvents=1;shape=mxgraph.aws4.user;" parent="1" vertex="1">
          <mxGeometry x="20" y="362" width="44" height="44" as="geometry" />
        </mxCell>
        <mxCell id="k1oZT4vzYtAEEAk6muaA-15" value="" style="outlineConnect=0;dashed=0;verticalLabelPosition=bottom;verticalAlign=top;align=center;html=1;shape=mxgraph.aws3.shield;fillColor=#759C3E;gradientColor=none;" parent="1" vertex="1">
          <mxGeometry x="306.87" y="234.5" width="48.25" height="50.5" as="geometry" />
        </mxCell>
        <mxCell id="k1oZT4vzYtAEEAk6muaA-18" value="&lt;b&gt;AWS Shield&lt;/b&gt;" style="text;html=1;align=center;verticalAlign=middle;resizable=0;points=[];autosize=1;strokeColor=none;fillColor=none;" parent="1" vertex="1">
          <mxGeometry x="286" y="285" width="90" height="30" as="geometry" />
        </mxCell>
        <mxCell id="k1oZT4vzYtAEEAk6muaA-19" value="&lt;b&gt;User&lt;/b&gt;" style="text;html=1;align=center;verticalAlign=middle;resizable=0;points=[];autosize=1;strokeColor=none;fillColor=none;" parent="1" vertex="1">
          <mxGeometry x="17" y="406" width="50" height="30" as="geometry" />
        </mxCell>
        <mxCell id="k1oZT4vzYtAEEAk6muaA-20" value="" style="outlineConnect=0;dashed=0;verticalLabelPosition=bottom;verticalAlign=top;align=center;html=1;shape=mxgraph.aws3.waf;fillColor=#759C3E;gradientColor=none;" parent="1" vertex="1">
          <mxGeometry x="182" y="350" width="50" height="56" as="geometry" />
        </mxCell>
        <mxCell id="k1oZT4vzYtAEEAk6muaA-21" value="&lt;b&gt;WAF&lt;/b&gt;" style="text;html=1;align=center;verticalAlign=middle;resizable=0;points=[];autosize=1;strokeColor=none;fillColor=none;" parent="1" vertex="1">
          <mxGeometry x="182" y="406" width="50" height="30" as="geometry" />
        </mxCell>
        <mxCell id="k1oZT4vzYtAEEAk6muaA-36" style="edgeStyle=orthogonalEdgeStyle;rounded=0;orthogonalLoop=1;jettySize=auto;html=1;entryX=0;entryY=0.5;entryDx=0;entryDy=0;" parent="1" source="k1oZT4vzYtAEEAk6muaA-34" target="k1oZT4vzYtAEEAk6muaA-5" edge="1">
          <mxGeometry relative="1" as="geometry">
            <mxPoint x="370" y="385" as="sourcePoint" />
          </mxGeometry>
        </mxCell>
        <mxCell id="k1oZT4vzYtAEEAk6muaA-52" style="edgeStyle=orthogonalEdgeStyle;rounded=0;orthogonalLoop=1;jettySize=auto;html=1;entryX=0;entryY=0.5;entryDx=0;entryDy=0;exitX=0.689;exitY=0.827;exitDx=0;exitDy=0;exitPerimeter=0;" parent="1" source="k1oZT4vzYtAEEAk6muaA-34" target="k1oZT4vzYtAEEAk6muaA-50" edge="1">
          <mxGeometry relative="1" as="geometry">
            <Array as="points">
              <mxPoint x="400" y="400" />
              <mxPoint x="400" y="490" />
            </Array>
          </mxGeometry>
        </mxCell>
        <mxCell id="k1oZT4vzYtAEEAk6muaA-26" value="" style="rounded=0;whiteSpace=wrap;html=1;rotation=90;fillColor=none;" parent="1" vertex="1">
          <mxGeometry x="253.41" y="354.99" width="154.82" height="71.48" as="geometry" />
        </mxCell>
        <mxCell id="k1oZT4vzYtAEEAk6muaA-31" value="" style="endArrow=classic;html=1;rounded=0;exitX=1;exitY=0.56;exitDx=0;exitDy=0;exitPerimeter=0;" parent="1" source="k1oZT4vzYtAEEAk6muaA-20" edge="1">
          <mxGeometry width="50" height="50" relative="1" as="geometry">
            <mxPoint x="237" y="381.3599999999999" as="sourcePoint" />
            <mxPoint x="300" y="380" as="targetPoint" />
          </mxGeometry>
        </mxCell>
        <mxCell id="k1oZT4vzYtAEEAk6muaA-34" value="" style="verticalLabelPosition=bottom;html=1;verticalAlign=top;strokeWidth=1;align=center;outlineConnect=0;dashed=0;outlineConnect=0;shape=mxgraph.aws3d.elasticLoadBalancing;fillColor=#ECECEC;strokeColor=#5E5E5E;aspect=fixed;" parent="1" vertex="1">
          <mxGeometry x="300" y="350" width="62.78" height="60.17" as="geometry" />
        </mxCell>
        <mxCell id="k1oZT4vzYtAEEAk6muaA-35" value="Elastic&lt;div&gt;Load&lt;/div&gt;&lt;div&gt;Balancer&lt;/div&gt;" style="text;html=1;align=center;verticalAlign=middle;resizable=0;points=[];autosize=1;strokeColor=none;fillColor=none;fontStyle=1" parent="1" vertex="1">
          <mxGeometry x="296.39" y="414" width="70" height="60" as="geometry" />
        </mxCell>
        <mxCell id="k1oZT4vzYtAEEAk6muaA-42" value="" style="outlineConnect=0;dashed=0;verticalLabelPosition=bottom;verticalAlign=top;align=center;html=1;shape=mxgraph.aws3.cloudwatch;fillColor=#759C3E;gradientColor=none;" parent="1" vertex="1">
          <mxGeometry x="525" y="337.5" width="53" height="63" as="geometry" />
        </mxCell>
        <mxCell id="k1oZT4vzYtAEEAk6muaA-43" value="&lt;b&gt;AWS&lt;/b&gt;&lt;div&gt;&lt;b&gt;CloudWatch&lt;/b&gt;&lt;/div&gt;" style="text;html=1;align=center;verticalAlign=middle;resizable=0;points=[];autosize=1;strokeColor=none;fillColor=none;" parent="1" vertex="1">
          <mxGeometry x="508" y="396.5" width="90" height="40" as="geometry" />
        </mxCell>
        <mxCell id="k1oZT4vzYtAEEAk6muaA-44" value="" style="rounded=1;whiteSpace=wrap;html=1;fillColor=none;" parent="1" vertex="1">
          <mxGeometry x="270" y="55" width="570" height="635" as="geometry" />
        </mxCell>
        <mxCell id="k1oZT4vzYtAEEAk6muaA-45" value="&lt;b&gt;&lt;font style=&quot;font-size: 15px;&quot;&gt;AWS VPC&lt;/font&gt;&lt;/b&gt;" style="text;html=1;align=center;verticalAlign=middle;whiteSpace=wrap;rounded=0;" parent="1" vertex="1">
          <mxGeometry x="328.23" y="25" width="80" height="30" as="geometry" />
        </mxCell>
        <mxCell id="k1oZT4vzYtAEEAk6muaA-54" style="edgeStyle=orthogonalEdgeStyle;rounded=0;orthogonalLoop=1;jettySize=auto;html=1;exitX=1;exitY=0;exitDx=0;exitDy=0;" parent="1" source="k1oZT4vzYtAEEAk6muaA-50" target="k1oZT4vzYtAEEAk6muaA-43" edge="1">
          <mxGeometry relative="1" as="geometry">
            <Array as="points">
              <mxPoint x="500" y="462" />
              <mxPoint x="500" y="457" />
              <mxPoint x="553" y="457" />
            </Array>
          </mxGeometry>
        </mxCell>
        <mxCell id="k1oZT4vzYtAEEAk6muaA-50" value="API&lt;div&gt;Gateway&lt;/div&gt;" style="ellipse;whiteSpace=wrap;html=1;aspect=fixed;fontStyle=1" parent="1" vertex="1">
          <mxGeometry x="435" y="450" width="80" height="80" as="geometry" />
        </mxCell>
        <mxCell id="k1oZT4vzYtAEEAk6muaA-53" style="edgeStyle=orthogonalEdgeStyle;rounded=0;orthogonalLoop=1;jettySize=auto;html=1;exitX=1;exitY=1;exitDx=0;exitDy=0;entryX=0.5;entryY=0.05;entryDx=0;entryDy=0;entryPerimeter=0;" parent="1" source="k1oZT4vzYtAEEAk6muaA-5" target="k1oZT4vzYtAEEAk6muaA-42" edge="1">
          <mxGeometry relative="1" as="geometry" />
        </mxCell>
        <mxCell id="k1oZT4vzYtAEEAk6muaA-58" value="" style="image;aspect=fixed;html=1;points=[];align=center;fontSize=12;image=img/lib/azure2/networking/Private_Link_Hub.svg;" parent="1" vertex="1">
          <mxGeometry x="724" y="104" width="50.15" height="58" as="geometry" />
        </mxCell>
        <mxCell id="k1oZT4vzYtAEEAk6muaA-59" value="" style="image;aspect=fixed;html=1;points=[];align=center;fontSize=12;image=img/lib/azure2/networking/Private_Link_Hub.svg;" parent="1" vertex="1">
          <mxGeometry x="724" y="233.5" width="50.15" height="58" as="geometry" />
        </mxCell>
        <mxCell id="k1oZT4vzYtAEEAk6muaA-60" value="" style="image;aspect=fixed;html=1;points=[];align=center;fontSize=12;image=img/lib/azure2/networking/Private_Link_Hub.svg;" parent="1" vertex="1">
          <mxGeometry x="724" y="354.5" width="50.15" height="58" as="geometry" />
        </mxCell>
        <mxCell id="k1oZT4vzYtAEEAk6muaA-61" value="" style="image;aspect=fixed;html=1;points=[];align=center;fontSize=12;image=img/lib/azure2/networking/Private_Link_Hub.svg;" parent="1" vertex="1">
          <mxGeometry x="724" y="474" width="50.15" height="58" as="geometry" />
        </mxCell>
        <mxCell id="k1oZT4vzYtAEEAk6muaA-62" value="" style="image;aspect=fixed;html=1;points=[];align=center;fontSize=12;image=img/lib/azure2/networking/Private_Link_Hub.svg;" parent="1" vertex="1">
          <mxGeometry x="724" y="589" width="50.15" height="58" as="geometry" />
        </mxCell>
        <mxCell id="k1oZT4vzYtAEEAk6muaA-66" style="edgeStyle=orthogonalEdgeStyle;rounded=0;orthogonalLoop=1;jettySize=auto;html=1;entryX=-0.197;entryY=0.356;entryDx=0;entryDy=0;entryPerimeter=0;" parent="1" source="k1oZT4vzYtAEEAk6muaA-5" target="k1oZT4vzYtAEEAk6muaA-58" edge="1">
          <mxGeometry relative="1" as="geometry">
            <Array as="points">
              <mxPoint x="475" y="125" />
            </Array>
          </mxGeometry>
        </mxCell>
        <mxCell id="k1oZT4vzYtAEEAk6muaA-67" style="edgeStyle=orthogonalEdgeStyle;rounded=0;orthogonalLoop=1;jettySize=auto;html=1;exitX=1;exitY=0;exitDx=0;exitDy=0;entryX=-0.08;entryY=0.457;entryDx=0;entryDy=0;entryPerimeter=0;" parent="1" source="k1oZT4vzYtAEEAk6muaA-5" target="k1oZT4vzYtAEEAk6muaA-59" edge="1">
          <mxGeometry relative="1" as="geometry" />
        </mxCell>
        <mxCell id="k1oZT4vzYtAEEAk6muaA-68" style="edgeStyle=orthogonalEdgeStyle;rounded=0;orthogonalLoop=1;jettySize=auto;html=1;entryX=-0.119;entryY=0.506;entryDx=0;entryDy=0;entryPerimeter=0;" parent="1" source="k1oZT4vzYtAEEAk6muaA-50" target="k1oZT4vzYtAEEAk6muaA-62" edge="1">
          <mxGeometry relative="1" as="geometry">
            <Array as="points">
              <mxPoint x="475" y="618" />
            </Array>
          </mxGeometry>
        </mxCell>
        <mxCell id="k1oZT4vzYtAEEAk6muaA-69" style="edgeStyle=orthogonalEdgeStyle;rounded=0;orthogonalLoop=1;jettySize=auto;html=1;exitX=1;exitY=1;exitDx=0;exitDy=0;entryX=0.037;entryY=0.755;entryDx=0;entryDy=0;entryPerimeter=0;" parent="1" source="k1oZT4vzYtAEEAk6muaA-50" target="k1oZT4vzYtAEEAk6muaA-61" edge="1">
          <mxGeometry relative="1" as="geometry" />
        </mxCell>
        <mxCell id="k1oZT4vzYtAEEAk6muaA-71" style="edgeStyle=orthogonalEdgeStyle;rounded=0;orthogonalLoop=1;jettySize=auto;html=1;exitX=1;exitY=0.5;exitDx=0;exitDy=0;entryX=-0.017;entryY=0.557;entryDx=0;entryDy=0;entryPerimeter=0;" parent="1" source="k1oZT4vzYtAEEAk6muaA-50" target="k1oZT4vzYtAEEAk6muaA-60" edge="1">
          <mxGeometry relative="1" as="geometry" />
        </mxCell>
        <mxCell id="k1oZT4vzYtAEEAk6muaA-72" value="&lt;b&gt;PrivateLink&lt;/b&gt;" style="text;html=1;align=center;verticalAlign=middle;resizable=0;points=[];autosize=1;strokeColor=none;fillColor=none;" parent="1" vertex="1">
          <mxGeometry x="704" y="155" width="90" height="30" as="geometry" />
        </mxCell>
        <mxCell id="k1oZT4vzYtAEEAk6muaA-73" value="&lt;b&gt;PrivateLink&lt;/b&gt;" style="text;html=1;align=center;verticalAlign=middle;resizable=0;points=[];autosize=1;strokeColor=none;fillColor=none;" parent="1" vertex="1">
          <mxGeometry x="705" y="286" width="90" height="30" as="geometry" />
        </mxCell>
        <mxCell id="k1oZT4vzYtAEEAk6muaA-75" value="&lt;b&gt;PrivateLink&lt;/b&gt;" style="text;html=1;align=center;verticalAlign=middle;resizable=0;points=[];autosize=1;strokeColor=none;fillColor=none;" parent="1" vertex="1">
          <mxGeometry x="705" y="408" width="90" height="30" as="geometry" />
        </mxCell>
        <mxCell id="k1oZT4vzYtAEEAk6muaA-76" value="&lt;b&gt;PrivateLink&lt;/b&gt;" style="text;html=1;align=center;verticalAlign=middle;resizable=0;points=[];autosize=1;strokeColor=none;fillColor=none;" parent="1" vertex="1">
          <mxGeometry x="705" y="525" width="90" height="30" as="geometry" />
        </mxCell>
        <mxCell id="k1oZT4vzYtAEEAk6muaA-77" value="&lt;b&gt;PrivateLink&lt;/b&gt;" style="text;html=1;align=center;verticalAlign=middle;resizable=0;points=[];autosize=1;strokeColor=none;fillColor=none;" parent="1" vertex="1">
          <mxGeometry x="705" y="640" width="90" height="30" as="geometry" />
        </mxCell>
        <mxCell id="k1oZT4vzYtAEEAk6muaA-79" value="" style="endArrow=classic;startArrow=classic;html=1;rounded=0;entryX=0;entryY=0.5;entryDx=0;entryDy=0;entryPerimeter=0;" parent="1" source="k1oZT4vzYtAEEAk6muaA-58" target="k1oZT4vzYtAEEAk6muaA-80" edge="1">
          <mxGeometry width="50" height="50" relative="1" as="geometry">
            <mxPoint x="940" y="190" as="sourcePoint" />
            <mxPoint x="840" y="140" as="targetPoint" />
          </mxGeometry>
        </mxCell>
        <mxCell id="k1oZT4vzYtAEEAk6muaA-80" value="" style="sketch=0;points=[[0,0,0],[0.25,0,0],[0.5,0,0],[0.75,0,0],[1,0,0],[0,1,0],[0.25,1,0],[0.5,1,0],[0.75,1,0],[1,1,0],[0,0.25,0],[0,0.5,0],[0,0.75,0],[1,0.25,0],[1,0.5,0],[1,0.75,0]];outlineConnect=0;fontColor=#232F3E;fillColor=#DD344C;strokeColor=#ffffff;dashed=0;verticalLabelPosition=bottom;verticalAlign=top;align=center;html=1;fontSize=12;fontStyle=0;aspect=fixed;shape=mxgraph.aws4.resourceIcon;resIcon=mxgraph.aws4.cognito;" parent="1" vertex="1">
          <mxGeometry x="950.41" y="104" width="58" height="58" as="geometry" />
        </mxCell>
        <mxCell id="k1oZT4vzYtAEEAk6muaA-81" value="Amazon&lt;div&gt;Cognito&lt;/div&gt;" style="text;html=1;align=center;verticalAlign=middle;resizable=0;points=[];autosize=1;strokeColor=none;fillColor=none;fontStyle=1" parent="1" vertex="1">
          <mxGeometry x="945.41" y="160" width="70" height="40" as="geometry" />
        </mxCell>
        <mxCell id="k1oZT4vzYtAEEAk6muaA-82" value="Access Token" style="edgeLabel;html=1;align=center;verticalAlign=middle;resizable=0;points=[];fontStyle=1;fontSize=12;" parent="1" vertex="1" connectable="0">
          <mxGeometry x="892" y="120.00142857142839" as="geometry" />
        </mxCell>
        <mxCell id="k1oZT4vzYtAEEAk6muaA-83" value="" style="endArrow=classic;startArrow=classic;html=1;rounded=0;" parent="1" target="k1oZT4vzYtAEEAk6muaA-84" edge="1">
          <mxGeometry width="50" height="50" relative="1" as="geometry">
            <mxPoint x="770" y="263" as="sourcePoint" />
            <mxPoint x="850" y="260" as="targetPoint" />
            <Array as="points">
              <mxPoint x="800" y="263" />
              <mxPoint x="820" y="263" />
            </Array>
          </mxGeometry>
        </mxCell>
        <mxCell id="k1oZT4vzYtAEEAk6muaA-84" value="" style="sketch=0;outlineConnect=0;fontColor=#232F3E;gradientColor=none;fillColor=#ED7100;strokeColor=none;dashed=0;verticalLabelPosition=bottom;verticalAlign=top;align=center;html=1;fontSize=12;fontStyle=0;aspect=fixed;pointerEvents=1;shape=mxgraph.aws4.lambda_function;" parent="1" vertex="1">
          <mxGeometry x="956.41" y="223.5" width="48" height="48" as="geometry" />
        </mxCell>
        <mxCell id="k1oZT4vzYtAEEAk6muaA-85" value="" style="sketch=0;outlineConnect=0;fontColor=#232F3E;gradientColor=none;fillColor=#ED7100;strokeColor=none;dashed=0;verticalLabelPosition=bottom;verticalAlign=top;align=center;html=1;fontSize=12;fontStyle=0;aspect=fixed;pointerEvents=1;shape=mxgraph.aws4.lambda_function;" parent="1" vertex="1">
          <mxGeometry x="955.41" y="653" width="48" height="48" as="geometry" />
        </mxCell>
        <mxCell id="k1oZT4vzYtAEEAk6muaA-86" value="" style="sketch=0;outlineConnect=0;fontColor=#232F3E;gradientColor=none;fillColor=#ED7100;strokeColor=none;dashed=0;verticalLabelPosition=bottom;verticalAlign=top;align=center;html=1;fontSize=12;fontStyle=0;aspect=fixed;pointerEvents=1;shape=mxgraph.aws4.lambda_function;" parent="1" vertex="1">
          <mxGeometry x="956.41" y="514" width="48" height="48" as="geometry" />
        </mxCell>
        <mxCell id="k1oZT4vzYtAEEAk6muaA-87" value="" style="sketch=0;outlineConnect=0;fontColor=#232F3E;gradientColor=none;fillColor=#ED7100;strokeColor=none;dashed=0;verticalLabelPosition=bottom;verticalAlign=top;align=center;html=1;fontSize=12;fontStyle=0;aspect=fixed;pointerEvents=1;shape=mxgraph.aws4.lambda_function;" parent="1" vertex="1">
          <mxGeometry x="956.41" y="360" width="48" height="48" as="geometry" />
        </mxCell>
        <mxCell id="k1oZT4vzYtAEEAk6muaA-88" value="" style="endArrow=classic;startArrow=classic;html=1;rounded=0;" parent="1" target="k1oZT4vzYtAEEAk6muaA-87" edge="1">
          <mxGeometry width="50" height="50" relative="1" as="geometry">
            <mxPoint x="774.15" y="384" as="sourcePoint" />
            <mxPoint x="898.15" y="384" as="targetPoint" />
            <Array as="points">
              <mxPoint x="804.15" y="384" />
              <mxPoint x="824.15" y="384" />
            </Array>
          </mxGeometry>
        </mxCell>
        <mxCell id="k1oZT4vzYtAEEAk6muaA-89" value="" style="endArrow=classic;startArrow=classic;html=1;rounded=0;" parent="1" target="k1oZT4vzYtAEEAk6muaA-86" edge="1">
          <mxGeometry width="50" height="50" relative="1" as="geometry">
            <mxPoint x="770.41" y="502" as="sourcePoint" />
            <mxPoint x="894.41" y="502" as="targetPoint" />
            <Array as="points">
              <mxPoint x="800.41" y="502" />
              <mxPoint x="820.41" y="502" />
            </Array>
          </mxGeometry>
        </mxCell>
        <mxCell id="k1oZT4vzYtAEEAk6muaA-90" value="" style="endArrow=classic;startArrow=classic;html=1;rounded=0;" parent="1" target="k1oZT4vzYtAEEAk6muaA-85" edge="1">
          <mxGeometry width="50" height="50" relative="1" as="geometry">
            <mxPoint x="769.41" y="617" as="sourcePoint" />
            <mxPoint x="893.41" y="617" as="targetPoint" />
            <Array as="points">
              <mxPoint x="799.41" y="617" />
              <mxPoint x="819.41" y="617" />
            </Array>
          </mxGeometry>
        </mxCell>
        <mxCell id="k1oZT4vzYtAEEAk6muaA-91" value="&lt;b&gt;Translate&lt;/b&gt;" style="text;html=1;align=center;verticalAlign=middle;resizable=0;points=[];autosize=1;strokeColor=none;fillColor=none;" parent="1" vertex="1">
          <mxGeometry x="942" y="265" width="80" height="30" as="geometry" />
        </mxCell>
        <mxCell id="k1oZT4vzYtAEEAk6muaA-92" value="&lt;b&gt;Text to Speech&lt;/b&gt;" style="text;html=1;align=center;verticalAlign=middle;resizable=0;points=[];autosize=1;strokeColor=none;fillColor=none;" parent="1" vertex="1">
          <mxGeometry x="924.41" y="406" width="110" height="30" as="geometry" />
        </mxCell>
        <mxCell id="k1oZT4vzYtAEEAk6muaA-93" value="&lt;b&gt;Text Extraction&lt;/b&gt;&lt;div&gt;&lt;b&gt;from Image&lt;/b&gt;&lt;/div&gt;" style="text;html=1;align=center;verticalAlign=middle;resizable=0;points=[];autosize=1;strokeColor=none;fillColor=none;" parent="1" vertex="1">
          <mxGeometry x="927" y="562" width="110" height="40" as="geometry" />
        </mxCell>
        <mxCell id="k1oZT4vzYtAEEAk6muaA-94" value="&lt;b&gt;Sentiment&lt;/b&gt;&lt;div&gt;&lt;b&gt;Analysis&lt;/b&gt;&lt;/div&gt;" style="text;html=1;align=center;verticalAlign=middle;resizable=0;points=[];autosize=1;strokeColor=none;fillColor=none;" parent="1" vertex="1">
          <mxGeometry x="942" y="696" width="80" height="40" as="geometry" />
        </mxCell>
        <mxCell id="k1oZT4vzYtAEEAk6muaA-96" value="" style="sketch=0;points=[[0,0,0],[0.25,0,0],[0.5,0,0],[0.75,0,0],[1,0,0],[0,1,0],[0.25,1,0],[0.5,1,0],[0.75,1,0],[1,1,0],[0,0.25,0],[0,0.5,0],[0,0.75,0],[1,0.25,0],[1,0.5,0],[1,0.75,0]];outlineConnect=0;fontColor=#232F3E;fillColor=#01A88D;strokeColor=#ffffff;dashed=0;verticalLabelPosition=bottom;verticalAlign=top;align=center;html=1;fontSize=12;fontStyle=0;aspect=fixed;shape=mxgraph.aws4.resourceIcon;resIcon=mxgraph.aws4.polly;" parent="1" vertex="1">
          <mxGeometry x="1051.5" y="328" width="53.5" height="53.5" as="geometry" />
        </mxCell>
        <mxCell id="k1oZT4vzYtAEEAk6muaA-97" value="" style="sketch=0;points=[[0,0,0],[0.25,0,0],[0.5,0,0],[0.75,0,0],[1,0,0],[0,1,0],[0.25,1,0],[0.5,1,0],[0.75,1,0],[1,1,0],[0,0.25,0],[0,0.5,0],[0,0.75,0],[1,0.25,0],[1,0.5,0],[1,0.75,0]];outlineConnect=0;fontColor=#232F3E;fillColor=#C925D1;strokeColor=#ffffff;dashed=0;verticalLabelPosition=bottom;verticalAlign=top;align=center;html=1;fontSize=12;fontStyle=0;aspect=fixed;shape=mxgraph.aws4.resourceIcon;resIcon=mxgraph.aws4.dynamodb;" parent="1" vertex="1">
          <mxGeometry x="1053" y="395" width="52" height="52" as="geometry" />
        </mxCell>
        <mxCell id="k1oZT4vzYtAEEAk6muaA-100" value="&lt;b&gt;AWS Polly&lt;/b&gt;" style="text;html=1;align=center;verticalAlign=middle;resizable=0;points=[];autosize=1;strokeColor=none;fillColor=none;" parent="1" vertex="1">
          <mxGeometry x="1099" y="337.5" width="80" height="30" as="geometry" />
        </mxCell>
        <mxCell id="k1oZT4vzYtAEEAk6muaA-101" value="&lt;b&gt;AWS DynamoDb&lt;/b&gt;" style="text;html=1;align=center;verticalAlign=middle;resizable=0;points=[];autosize=1;strokeColor=none;fillColor=none;" parent="1" vertex="1">
          <mxGeometry x="1097" y="401.5" width="120" height="30" as="geometry" />
        </mxCell>
        <mxCell id="k1oZT4vzYtAEEAk6muaA-104" value="" style="endArrow=classic;startArrow=classic;html=1;rounded=0;entryX=0;entryY=0.5;entryDx=0;entryDy=0;entryPerimeter=0;" parent="1" source="k1oZT4vzYtAEEAk6muaA-87" target="k1oZT4vzYtAEEAk6muaA-96" edge="1">
          <mxGeometry width="50" height="50" relative="1" as="geometry">
            <mxPoint x="1000" y="400" as="sourcePoint" />
            <mxPoint x="1050" y="350" as="targetPoint" />
          </mxGeometry>
        </mxCell>
        <mxCell id="k1oZT4vzYtAEEAk6muaA-105" value="" style="endArrow=classic;startArrow=classic;html=1;rounded=0;entryX=0;entryY=0.5;entryDx=0;entryDy=0;entryPerimeter=0;" parent="1" source="k1oZT4vzYtAEEAk6muaA-87" target="k1oZT4vzYtAEEAk6muaA-97" edge="1">
          <mxGeometry width="50" height="50" relative="1" as="geometry">
            <mxPoint x="1000" y="400" as="sourcePoint" />
            <mxPoint x="1050" y="350" as="targetPoint" />
          </mxGeometry>
        </mxCell>
        <mxCell id="k1oZT4vzYtAEEAk6muaA-106" value="" style="sketch=0;points=[[0,0,0],[0.25,0,0],[0.5,0,0],[0.75,0,0],[1,0,0],[0,1,0],[0.25,1,0],[0.5,1,0],[0.75,1,0],[1,1,0],[0,0.25,0],[0,0.5,0],[0,0.75,0],[1,0.25,0],[1,0.5,0],[1,0.75,0]];outlineConnect=0;fontColor=#232F3E;fillColor=#01A88D;strokeColor=#ffffff;dashed=0;verticalLabelPosition=bottom;verticalAlign=top;align=center;html=1;fontSize=12;fontStyle=0;aspect=fixed;shape=mxgraph.aws4.resourceIcon;resIcon=mxgraph.aws4.translate;" parent="1" vertex="1">
          <mxGeometry x="1113.25" y="165.5" width="53" height="53" as="geometry" />
        </mxCell>
        <mxCell id="k1oZT4vzYtAEEAk6muaA-108" value="" style="sketch=0;points=[[0,0,0],[0.25,0,0],[0.5,0,0],[0.75,0,0],[1,0,0],[0,1,0],[0.25,1,0],[0.5,1,0],[0.75,1,0],[1,1,0],[0,0.25,0],[0,0.5,0],[0,0.75,0],[1,0.25,0],[1,0.5,0],[1,0.75,0]];outlineConnect=0;fontColor=#232F3E;fillColor=#C925D1;strokeColor=#ffffff;dashed=0;verticalLabelPosition=bottom;verticalAlign=top;align=center;html=1;fontSize=12;fontStyle=0;aspect=fixed;shape=mxgraph.aws4.resourceIcon;resIcon=mxgraph.aws4.dynamodb;" parent="1" vertex="1">
          <mxGeometry x="1114.25" y="233.00000000000003" width="52" height="52" as="geometry" />
        </mxCell>
        <mxCell id="k1oZT4vzYtAEEAk6muaA-110" value="" style="endArrow=classic;startArrow=classic;html=1;rounded=0;entryX=0;entryY=0.5;entryDx=0;entryDy=0;entryPerimeter=0;" parent="1" source="k1oZT4vzYtAEEAk6muaA-84" target="k1oZT4vzYtAEEAk6muaA-106" edge="1">
          <mxGeometry width="50" height="50" relative="1" as="geometry">
            <mxPoint x="890" y="275" as="sourcePoint" />
            <mxPoint x="940" y="225" as="targetPoint" />
          </mxGeometry>
        </mxCell>
        <mxCell id="k1oZT4vzYtAEEAk6muaA-111" value="" style="endArrow=classic;startArrow=classic;html=1;rounded=0;entryX=0;entryY=0.5;entryDx=0;entryDy=0;entryPerimeter=0;" parent="1" source="k1oZT4vzYtAEEAk6muaA-84" target="k1oZT4vzYtAEEAk6muaA-108" edge="1">
          <mxGeometry width="50" height="50" relative="1" as="geometry">
            <mxPoint x="1000" y="248" as="sourcePoint" />
            <mxPoint x="940" y="225" as="targetPoint" />
          </mxGeometry>
        </mxCell>
        <mxCell id="k1oZT4vzYtAEEAk6muaA-112" value="&lt;b&gt;AWS DynamoDb&lt;/b&gt;" style="text;html=1;align=center;verticalAlign=middle;resizable=0;points=[];autosize=1;strokeColor=none;fillColor=none;" parent="1" vertex="1">
          <mxGeometry x="1159" y="246.5" width="120" height="30" as="geometry" />
        </mxCell>
        <mxCell id="k1oZT4vzYtAEEAk6muaA-113" value="&lt;b&gt;AWS Translate&lt;/b&gt;" style="text;html=1;align=center;verticalAlign=middle;resizable=0;points=[];autosize=1;strokeColor=none;fillColor=none;" parent="1" vertex="1">
          <mxGeometry x="1156" y="177" width="110" height="30" as="geometry" />
        </mxCell>
        <mxCell id="k1oZT4vzYtAEEAk6muaA-115" value="" style="sketch=0;points=[[0,0,0],[0.25,0,0],[0.5,0,0],[0.75,0,0],[1,0,0],[0,1,0],[0.25,1,0],[0.5,1,0],[0.75,1,0],[1,1,0],[0,0.25,0],[0,0.5,0],[0,0.75,0],[1,0.25,0],[1,0.5,0],[1,0.75,0]];outlineConnect=0;fontColor=#232F3E;fillColor=#C925D1;strokeColor=#ffffff;dashed=0;verticalLabelPosition=bottom;verticalAlign=top;align=center;html=1;fontSize=12;fontStyle=0;aspect=fixed;shape=mxgraph.aws4.resourceIcon;resIcon=mxgraph.aws4.dynamodb;" parent="1" vertex="1">
          <mxGeometry x="1116.41" y="564" width="52" height="52" as="geometry" />
        </mxCell>
        <mxCell id="k1oZT4vzYtAEEAk6muaA-116" value="&lt;b&gt;AWS Textract&lt;/b&gt;" style="text;html=1;align=center;verticalAlign=middle;resizable=0;points=[];autosize=1;strokeColor=none;fillColor=none;" parent="1" vertex="1">
          <mxGeometry x="1161.41" y="506.5" width="100" height="30" as="geometry" />
        </mxCell>
        <mxCell id="k1oZT4vzYtAEEAk6muaA-117" value="&lt;b&gt;AWS DynamoDb&lt;/b&gt;" style="text;html=1;align=center;verticalAlign=middle;resizable=0;points=[];autosize=1;strokeColor=none;fillColor=none;" parent="1" vertex="1">
          <mxGeometry x="1160.41" y="570.5" width="120" height="30" as="geometry" />
        </mxCell>
        <mxCell id="k1oZT4vzYtAEEAk6muaA-118" value="" style="endArrow=classic;startArrow=classic;html=1;rounded=0;entryX=0;entryY=0.5;entryDx=0;entryDy=0;entryPerimeter=0;" parent="1" source="k1oZT4vzYtAEEAk6muaA-86" edge="1">
          <mxGeometry width="50" height="50" relative="1" as="geometry">
            <mxPoint x="1010" y="537" as="sourcePoint" />
            <mxPoint x="1114.91" y="523.75" as="targetPoint" />
          </mxGeometry>
        </mxCell>
        <mxCell id="k1oZT4vzYtAEEAk6muaA-119" value="" style="endArrow=classic;startArrow=classic;html=1;rounded=0;entryX=0;entryY=0.5;entryDx=0;entryDy=0;entryPerimeter=0;" parent="1" source="k1oZT4vzYtAEEAk6muaA-86" target="k1oZT4vzYtAEEAk6muaA-115" edge="1">
          <mxGeometry width="50" height="50" relative="1" as="geometry">
            <mxPoint x="1008.41" y="557" as="sourcePoint" />
            <mxPoint x="1054.41" y="519" as="targetPoint" />
          </mxGeometry>
        </mxCell>
        <mxCell id="k1oZT4vzYtAEEAk6muaA-127" value="" style="sketch=0;points=[[0,0,0],[0.25,0,0],[0.5,0,0],[0.75,0,0],[1,0,0],[0,1,0],[0.25,1,0],[0.5,1,0],[0.75,1,0],[1,1,0],[0,0.25,0],[0,0.5,0],[0,0.75,0],[1,0.25,0],[1,0.5,0],[1,0.75,0]];outlineConnect=0;fontColor=#232F3E;fillColor=#C925D1;strokeColor=#ffffff;dashed=0;verticalLabelPosition=bottom;verticalAlign=top;align=center;html=1;fontSize=12;fontStyle=0;aspect=fixed;shape=mxgraph.aws4.resourceIcon;resIcon=mxgraph.aws4.dynamodb;" parent="1" vertex="1">
          <mxGeometry x="1056.41" y="720" width="52" height="52" as="geometry" />
        </mxCell>
        <mxCell id="k1oZT4vzYtAEEAk6muaA-128" value="&lt;b&gt;AWS Comprehend&lt;/b&gt;" style="text;html=1;align=center;verticalAlign=middle;resizable=0;points=[];autosize=1;strokeColor=none;fillColor=none;" parent="1" vertex="1">
          <mxGeometry x="1097" y="662" width="130" height="30" as="geometry" />
        </mxCell>
        <mxCell id="k1oZT4vzYtAEEAk6muaA-129" value="&lt;b&gt;AWS DynamoDb&lt;/b&gt;" style="text;html=1;align=center;verticalAlign=middle;resizable=0;points=[];autosize=1;strokeColor=none;fillColor=none;" parent="1" vertex="1">
          <mxGeometry x="1100.41" y="726.5" width="120" height="30" as="geometry" />
        </mxCell>
        <mxCell id="k1oZT4vzYtAEEAk6muaA-130" value="" style="endArrow=classic;startArrow=classic;html=1;rounded=0;" parent="1" source="k1oZT4vzYtAEEAk6muaA-85" edge="1">
          <mxGeometry width="50" height="50" relative="1" as="geometry">
            <mxPoint x="1008.41" y="706" as="sourcePoint" />
            <mxPoint x="1050" y="677" as="targetPoint" />
          </mxGeometry>
        </mxCell>
        <mxCell id="k1oZT4vzYtAEEAk6muaA-131" value="" style="endArrow=classic;startArrow=classic;html=1;rounded=0;entryX=0;entryY=0.5;entryDx=0;entryDy=0;entryPerimeter=0;exitX=0.929;exitY=0.583;exitDx=0;exitDy=0;exitPerimeter=0;" parent="1" source="k1oZT4vzYtAEEAk6muaA-85" target="k1oZT4vzYtAEEAk6muaA-127" edge="1">
          <mxGeometry width="50" height="50" relative="1" as="geometry">
            <mxPoint x="1010" y="681" as="sourcePoint" />
            <mxPoint x="1054.41" y="675" as="targetPoint" />
          </mxGeometry>
        </mxCell>
        <mxCell id="k1oZT4vzYtAEEAk6muaA-134" value="" style="sketch=0;points=[[0,0,0],[0.25,0,0],[0.5,0,0],[0.75,0,0],[1,0,0],[0,1,0],[0.25,1,0],[0.5,1,0],[0.75,1,0],[1,1,0],[0,0.25,0],[0,0.5,0],[0,0.75,0],[1,0.25,0],[1,0.5,0],[1,0.75,0]];outlineConnect=0;fontColor=#232F3E;fillColor=#01A88D;strokeColor=#ffffff;dashed=0;verticalLabelPosition=bottom;verticalAlign=top;align=center;html=1;fontSize=12;fontStyle=0;aspect=fixed;shape=mxgraph.aws4.resourceIcon;resIcon=mxgraph.aws4.textract;" parent="1" vertex="1">
          <mxGeometry x="1117" y="495.5" width="52" height="52" as="geometry" />
        </mxCell>
        <mxCell id="k1oZT4vzYtAEEAk6muaA-138" value="" style="sketch=0;points=[[0,0,0],[0.25,0,0],[0.5,0,0],[0.75,0,0],[1,0,0],[0,1,0],[0.25,1,0],[0.5,1,0],[0.75,1,0],[1,1,0],[0,0.25,0],[0,0.5,0],[0,0.75,0],[1,0.25,0],[1,0.5,0],[1,0.75,0]];outlineConnect=0;fontColor=#232F3E;fillColor=#01A88D;strokeColor=#ffffff;dashed=0;verticalLabelPosition=bottom;verticalAlign=top;align=center;html=1;fontSize=12;fontStyle=0;aspect=fixed;shape=mxgraph.aws4.resourceIcon;resIcon=mxgraph.aws4.comprehend;" parent="1" vertex="1">
          <mxGeometry x="1057" y="655" width="48" height="48" as="geometry" />
        </mxCell>
      </root>
    </mxGraphModel>
  </diagram>
</mxfile>
